<svg xmlns="http://www.w3.org/2000/svg" width="144" height="118" viewBox="0 0 144 118">
    <g fill="none" fill-rule="evenodd">
        <g>
            <g>
                <g>
                    <g>
                        <g>
                            <path fill="#FFDA0B" d="M31.22 34.724c3.68 0 2.65-4.11 2.65-8.87 0-4.76 1.03-8.367-2.65-8.367-3.681 0-6.665 3.859-6.665 8.619s2.984 8.618 6.664 8.618z" transform="translate(-326 -992) translate(200 941) translate(126 51) matrix(-1 0 0 1 143.304 0)"/>
                            <g>
                                <path fill="#1D1D1B" d="M19.483 105.96c-4.536 0-8.212-3.678-8.212-8.212 0-4.535 3.676-8.213 8.212-8.213 4.535 0 8.213 3.678 8.213 8.213 0 4.534-3.678 8.212-8.213 8.212m0-27.696C8.723 78.264 0 86.987 0 97.748c0 10.76 8.722 19.482 19.482 19.482 10.761 0 19.484-8.722 19.484-19.482 0-10.761-8.723-19.484-19.484-19.484M108.809 105.96c-4.536 0-8.212-3.678-8.212-8.212 0-4.535 3.676-8.213 8.212-8.213 4.534 0 8.211 3.678 8.211 8.213 0 4.534-3.677 8.212-8.211 8.212m0-27.696c-10.762 0-19.484 8.723-19.484 19.484 0 10.76 8.722 19.482 19.484 19.482 10.761 0 19.482-8.722 19.482-19.482 0-10.761-8.72-19.484-19.482-19.484M77.602 45.158h30.101c3.616 0 6.545-2.93 6.545-6.545 0-3.614-2.93-6.546-6.545-6.546H77.602c-3.614 0-6.545 2.932-6.545 6.546 0 3.615 2.931 6.545 6.545 6.545" transform="translate(-326 -992) translate(200 941) translate(126 51) matrix(-1 0 0 1 143.304 0)"/>
                                <path fill="#982B2B" d="M107.055 49.085H80.141c-5.24 0-8.507 11.778-5.24 14.394 3.272 2.617 7.848 21.603 1.303 21.603H47.495s-7.85-11.785-3.922-26.507c2.019-7.571 3.439-21.153 3.002-27.108-.188-2.541-.509-3.897-2.139-7.316-1.743-3.656-6.415-7.578-13.304-7.799 0 0-8.507 9.16 0 19.636 0 0 5.24.655 0 7.2-4.82 6.025-16.541 17.332-18.38 33.131-.149.057-.288.13-.437.188l.087.464c2.223-.76 4.602-1.187 7.08-1.187 12.13 0 21.961 9.834 21.961 21.965 0 .97-.097 1.914-.228 2.85 5.112-.027 10.223.05 15.33.183h29.064v.062h46.424v-.062h1.694c1.358-.023 2.718-.044 4.077-.058 8.41-1.201 6.223-26.347-7.193-35.933-13.745-9.818-14.395-15.706-23.556-15.706z" transform="translate(-326 -992) translate(200 941) translate(126 51) matrix(-1 0 0 1 143.304 0)"/>
                                <path fill="#1D1D1B" d="M42.718 32.851h13.927c1.673 0 3.03-1.356 3.03-3.028s-1.357-3.028-3.03-3.028H42.718c-1.673 0-3.028 1.356-3.028 3.028s1.355 3.028 3.028 3.028" transform="translate(-326 -992) translate(200 941) translate(126 51) matrix(-1 0 0 1 143.304 0)"/>
                                <path fill="#4D5353" d="M103.469 12.26v17.87h3.796c4.348 0 8.233 3.168 8.657 7.494.1 1.01.016 1.985-.22 2.896-.596 2.298.955 4.572 3.326 4.572h19.985c2.073 0 3.758-1.683 3.758-3.758V12.261h-39.302zM142.942 10.435V3.76c0-2.075-1.683-3.758-3.76-3.758H107.4c-2.075 0-3.76 1.683-3.76 3.758v6.676h39.302z" transform="translate(-326 -992) translate(200 941) translate(126 51) matrix(-1 0 0 1 143.304 0)"/>
                            </g>
                        </g>
                        <path fill="#6A1515" d="M85.421 101.178c2.01-16.752 9.884-25.128 23.622-25.128s21.609 8.376 23.612 25.13c.1.833-.496 1.59-1.33 1.69-.06.007-.12.01-.18.01H86.93c-.84 0-1.52-.68-1.52-1.52 0-.061.003-.121.01-.182z" transform="translate(-326 -992) translate(200 941) translate(126 51) matrix(-1 0 0 1 143.304 0)"/>
                    </g>
                </g>
            </g>
        </g>
    </g>
</svg>
